<?xml version="1.0" encoding="UTF-8" standalone="no"?>
<!-- Created with Inkscape (http://www.inkscape.org/) -->

<svg
   width="42.748898mm"
   height="26.920565mm"
   viewBox="0 0 42.748898 26.920565"
   version="1.1"
   id="svg1631"
   xml:space="preserve"
   inkscape:version="1.2.2 (732a01da63, 2022-12-09)"
   sodipodi:docname="MujltiScreen.svg"
   xmlns:inkscape="http://www.inkscape.org/namespaces/inkscape"
   xmlns:sodipodi="http://sodipodi.sourceforge.net/DTD/sodipodi-0.dtd"
   xmlns="http://www.w3.org/2000/svg"
   xmlns:svg="http://www.w3.org/2000/svg"><sodipodi:namedview
     id="namedview1633"
     pagecolor="#ffffff"
     bordercolor="#000000"
     borderopacity="0.25"
     inkscape:showpageshadow="2"
     inkscape:pageopacity="0.0"
     inkscape:pagecheckerboard="0"
     inkscape:deskcolor="#d1d1d1"
     inkscape:document-units="mm"
     showgrid="false"
     showguides="true"
     inkscape:zoom="4.5455617"
     inkscape:cx="21.449494"
     inkscape:cy="59.948586"
     inkscape:window-width="1920"
     inkscape:window-height="1052"
     inkscape:window-x="-8"
     inkscape:window-y="1792"
     inkscape:window-maximized="1"
     inkscape:current-layer="layer1"><sodipodi:guide
       position="20.181285,29.176617"
       orientation="1,0"
       id="guide1897"
       inkscape:locked="false" /><sodipodi:guide
       position="22.322795,17.721997"
       orientation="0,-1"
       id="guide1973"
       inkscape:locked="false" /><sodipodi:guide
       position="25.507225,11.248867"
       orientation="0,-1"
       id="guide1976"
       inkscape:locked="false" /></sodipodi:namedview><defs
     id="defs1628" /><g
     inkscape:label="Ebene 1"
     inkscape:groupmode="layer"
     id="layer1"
     transform="translate(-144.54442,-129.64198)"><path
       style="display:inline;fill:#000000;stroke:#000000;stroke-width:1.10044;stroke-linecap:round;stroke-linejoin:bevel;stroke-opacity:0;paint-order:fill markers stroke"
       d="m 164.96271,144.85358 c -0.65854,0.65853 0.36782,1.68489 1.02636,1.02635 l 9.94579,-9.94579 c 0.65853,-0.65853 -0.36782,-1.68489 -1.02636,-1.02635 -2.09191,2.09191 -7.71085,7.71091 -9.94579,9.94579 z"
       id="path1870-6"
       sodipodi:nodetypes="sssss"
       inkscape:label="Schräg lang" /><path
       style="display:inline;fill:#000000;stroke:#000000;stroke-width:0.803326;stroke-linecap:round;stroke-linejoin:bevel;stroke-opacity:0;paint-order:fill markers stroke"
       d="m 165.0899,138.12327 c -0.88388,0.8838 0.14252,1.9102 1.02636,1.02636 l 3.08007,-3.08008 c 0.91303,-0.91303 -0.11333,-1.93938 -1.02636,-1.02635 -0.8866,0.88659 -2.13284,2.13289 -3.08007,3.08007 z"
       id="path1870"
       sodipodi:nodetypes="sssss"
       inkscape:label="Schräg kurz" /><path
       id="path1784"
       style="display:inline;fill:#000000;stroke:#000000;stroke-width:0.665001;stroke-linecap:round;stroke-linejoin:bevel;stroke-opacity:0;paint-order:fill markers stroke"
       inkscape:label="Groß Innen"
       d="m 161.79943,129.97553 c -0.37077,0.0264 -0.73433,0.50198 -0.73433,0.87385 0,7.81599 -0.008,16.97834 0,24.38869 4.7e-4,0.42595 0.38438,1.03197 0.80822,0.9896 8.52119,-0.85189 16.5606,-1.83139 24.24349,-2.79414 0.3814,-0.0478 0.84385,-0.40161 0.84387,-0.786 3e-4,-6.13771 0,-12.94609 0,-19.00452 0,-0.39787 -0.44903,-0.79496 -0.84387,-0.84388 -7.38533,-0.91495 -16.7411,-2.09576 -24.24349,-2.82308 -0.0247,-0.002 -0.0492,-0.002 -0.0739,-5.2e-4 z m 0.77824,1.77302 22.86993,2.50579 v 17.63665 l -22.86993,2.77967 z" /><path
       style="display:inline;fill:#000000;stroke:#000000;stroke-width:0.665001;stroke-linecap:round;stroke-linejoin:bevel;stroke-opacity:0;paint-order:fill markers stroke"
       d="m 152.12827,132.29099 c -0.40266,-0.0484 -0.78294,0.52575 -0.78294,0.93131 0,4.11508 -0.008,15.40858 -0.007,19.61627 4e-5,0.40556 0.38074,0.98346 0.78294,0.93131 1.25614,-0.16289 5.67838,-0.60458 6.76159,-0.74378 0.88846,-0.11418 0.92493,-1.68687 0,-1.52811 -0.82138,0.14098 -6.03115,0.74378 -6.03115,0.74378 l 0.007,-18.36093 c 0,0 5.16047,0.73357 6.06026,0.84813 0.86652,0.11032 0.87712,-1.49705 0,-1.58984 -1.35597,-0.14347 -5.57181,-0.70155 -6.7907,-0.84814 z"
       id="path1687"
       sodipodi:nodetypes="ssssssccsss"
       inkscape:label="Mittlerer"
       sodipodi:insensitive="true" /><path
       style="display:inline;fill:#000000;stroke:#000000;stroke-width:0.665001;stroke-linecap:round;stroke-linejoin:bevel;stroke-opacity:0;paint-order:fill markers stroke"
       d="m 145.66006,135.5058 c -0.40266,-0.0484 -0.78294,0.52575 -0.78294,0.93131 0,4.11508 -4.6e-4,9.0635 0,13.27119 4e-5,0.40556 0.38074,0.98346 0.78294,0.93131 1.25614,-0.16289 2.477,-0.31354 3.56021,-0.45274 0.88846,-0.11418 0.92493,-1.68687 0,-1.52811 -0.82138,0.14098 -2.82977,0.45274 -2.82977,0.45274 v -12.01585 c 0,0 1.92998,0.29702 2.82977,0.41158 0.86652,0.11032 0.87712,-1.49705 0,-1.58984 -1.35597,-0.14347 -2.34132,-0.265 -3.56021,-0.41159 z"
       id="path1689"
       sodipodi:nodetypes="ssssssccsss"
       inkscape:label="Kleinster"
       sodipodi:insensitive="true" /></g></svg>
